<?xml version="1.0" encoding="UTF-8" standalone="no"?>
<!DOCTYPE svg PUBLIC "-//W3C//DTD SVG 1.1//EN"
 "http://www.w3.org/Graphics/SVG/1.1/DTD/svg11.dtd">
<!-- Generated by graphviz version 2.40.1 (20161225.0304)
 -->
<!-- Title: G Pages: 1 -->
<svg width="426pt" height="636pt"
 viewBox="0.00 0.00 426.00 636.00" xmlns="http://www.w3.org/2000/svg" xmlns:xlink="http://www.w3.org/1999/xlink">
<g id="graph0" class="graph" transform="scale(1 1) rotate(0) translate(4 632)">
<title>G</title>
<polygon fill="#ffffff" stroke="transparent" points="-4,4 -4,-632 422,-632 422,4 -4,4"/>
<g id="clust1" class="cluster">
<title>cluster_Global</title>
<path fill="none" stroke="#c0c0c0" d="M20,-8C20,-8 398,-8 398,-8 404,-8 410,-14 410,-20 410,-20 410,-608 410,-608 410,-614 404,-620 398,-620 398,-620 20,-620 20,-620 14,-620 8,-614 8,-608 8,-608 8,-20 8,-20 8,-14 14,-8 20,-8"/>
<text text-anchor="middle" x="209" y="-607.2" font-family="Times,serif" font-size="11.00" fill="#c0c0c0">Global</text>
</g>
<!-- \\Album -->
<g id="node1" class="node">
<title>\\Album</title>
<polygon fill="none" stroke="#000000" points="377,-592 323,-592 323,-556 377,-556 377,-592"/>
<text text-anchor="middle" x="350" y="-571.2" font-family="Courier,monospace" font-size="11.00" fill="#000000">Album</text>
</g>
<!-- \\PlaylistEntry -->
<g id="node2" class="node">
<title>\\PlaylistEntry</title>
<polygon fill="none" stroke="#000000" points="402,-538 298,-538 298,-502 402,-502 402,-538"/>
<text text-anchor="middle" x="350" y="-517.2" font-family="Courier,monospace" font-size="11.00" fill="#000000">PlaylistEntry</text>
</g>
<!-- \\User -->
<g id="node3" class="node">
<title>\\User</title>
<polygon fill="none" stroke="#000000" points="377,-484 323,-484 323,-448 377,-448 377,-484"/>
<text text-anchor="middle" x="350" y="-463.2" font-family="Courier,monospace" font-size="11.00" fill="#000000">User</text>
</g>
<!-- \\Database -->
<g id="node4" class="node">
<title>\\Database</title>
<polygon fill="none" stroke="#000000" points="385.5,-430 314.5,-430 314.5,-394 385.5,-394 385.5,-430"/>
<text text-anchor="middle" x="350" y="-409.2" font-family="Courier,monospace" font-size="11.00" fill="#000000">Database</text>
</g>
<!-- \\Label -->
<g id="node5" class="node">
<title>\\Label</title>
<polygon fill="none" stroke="#000000" points="377,-376 323,-376 323,-340 377,-340 377,-376"/>
<text text-anchor="middle" x="350" y="-355.2" font-family="Courier,monospace" font-size="11.00" fill="#000000">Label</text>
</g>
<!-- \\BetterPage -->
<g id="node6" class="node">
<title>\\BetterPage</title>
<polygon fill="none" stroke="#000000" points="226,-322 142,-322 142,-286 226,-286 226,-322"/>
<text text-anchor="middle" x="184" y="-301.2" font-family="Courier,monospace" font-size="11.00" fill="#000000">BetterPage</text>
</g>
<!-- \\Page -->
<g id="node9" class="node">
<title>\\Page</title>
<polygon fill="none" stroke="#000000" points="70,-322 16,-322 16,-286 70,-286 70,-322"/>
<text text-anchor="middle" x="43" y="-301.2" font-family="Courier,monospace" font-size="11.00" fill="#000000">Page</text>
</g>
<!-- \\BetterPage&#45;&gt;\\Page -->
<g id="edge1" class="edge">
<title>\\BetterPage&#45;&gt;\\Page</title>
<path fill="none" stroke="#000000" d="M141.6954,-304C122.1206,-304 99.0737,-304 80.1758,-304"/>
<polygon fill="none" stroke="#000000" points="80.1523,-300.5001 70.1523,-304 80.1523,-307.5001 80.1523,-300.5001"/>
</g>
<!-- \\Form -->
<g id="node7" class="node">
<title>\\Form</title>
<polygon fill="none" stroke="#000000" points="377,-322 323,-322 323,-286 377,-286 377,-322"/>
<text text-anchor="middle" x="350" y="-301.2" font-family="Courier,monospace" font-size="11.00" fill="#000000">Form</text>
</g>
<!-- \\Form&#45;&gt;\\BetterPage -->
<g id="edge2" class="edge">
<title>\\Form&#45;&gt;\\BetterPage</title>
<path fill="none" stroke="#000000" d="M322.9598,-304C299.6403,-304 265.2895,-304 236.5764,-304"/>
<polygon fill="none" stroke="#000000" points="236.2839,-300.5001 226.2839,-304 236.2838,-307.5001 236.2839,-300.5001"/>
</g>
<!-- \\DataWriter -->
<g id="node8" class="node">
<title>\\DataWriter</title>
<polygon fill="none" stroke="#000000" points="392,-268 308,-268 308,-232 392,-232 392,-268"/>
<text text-anchor="middle" x="350" y="-247.2" font-family="Courier,monospace" font-size="11.00" fill="#000000">DataWriter</text>
</g>
<!-- \\Song -->
<g id="node10" class="node">
<title>\\Song</title>
<polygon fill="none" stroke="#000000" points="377,-214 323,-214 323,-178 377,-178 377,-214"/>
<text text-anchor="middle" x="350" y="-193.2" font-family="Courier,monospace" font-size="11.00" fill="#000000">Song</text>
</g>
<!-- \\Artist -->
<g id="node11" class="node">
<title>\\Artist</title>
<polygon fill="none" stroke="#000000" points="378.5,-160 321.5,-160 321.5,-124 378.5,-124 378.5,-160"/>
<text text-anchor="middle" x="350" y="-139.2" font-family="Courier,monospace" font-size="11.00" fill="#000000">Artist</text>
</g>
<!-- \\DataReader -->
<g id="node12" class="node">
<title>\\DataReader</title>
<polygon fill="none" stroke="#000000" points="392,-106 308,-106 308,-70 392,-70 392,-106"/>
<text text-anchor="middle" x="350" y="-85.2" font-family="Courier,monospace" font-size="11.00" fill="#000000">DataReader</text>
</g>
<!-- \\Stack -->
<g id="node13" class="node">
<title>\\Stack</title>
<polygon fill="none" stroke="#000000" points="377,-52 323,-52 323,-16 377,-16 377,-52"/>
<text text-anchor="middle" x="350" y="-31.2" font-family="Courier,monospace" font-size="11.00" fill="#000000">Stack</text>
</g>
</g>
</svg>
