<?xml version="1.0" encoding="UTF-8" standalone="no"?>
<!DOCTYPE svg PUBLIC "-//W3C//DTD SVG 1.1//EN"
 "http://www.w3.org/Graphics/SVG/1.1/DTD/svg11.dtd">
<!-- Generated by graphviz version 2.40.1 (20161225.0304)
 -->
<!-- Title: G Pages: 1 -->
<svg width="410pt" height="636pt"
 viewBox="0.00 0.00 410.00 636.00" xmlns="http://www.w3.org/2000/svg" xmlns:xlink="http://www.w3.org/1999/xlink">
<g id="graph0" class="graph" transform="scale(1 1) rotate(0) translate(4 632)">
<title>G</title>
<polygon fill="#ffffff" stroke="transparent" points="-4,4 -4,-632 406,-632 406,4 -4,4"/>
<g id="clust1" class="cluster">
<title>cluster_Global</title>
<path fill="none" stroke="#c0c0c0" d="M20,-8C20,-8 382,-8 382,-8 388,-8 394,-14 394,-20 394,-20 394,-608 394,-608 394,-614 388,-620 382,-620 382,-620 20,-620 20,-620 14,-620 8,-614 8,-608 8,-608 8,-20 8,-20 8,-14 14,-8 20,-8"/>
<text text-anchor="middle" x="201" y="-607.2" font-family="Times,serif" font-size="11.00" fill="#c0c0c0">Global</text>
</g>
<!-- \\Album -->
<g id="node1" class="node">
<title>\\Album</title>
<polygon fill="none" stroke="#000000" points="365.5,-592 311.5,-592 311.5,-556 365.5,-556 365.5,-592"/>
<text text-anchor="middle" x="338.5" y="-571.2" font-family="Courier,monospace" font-size="11.00" fill="#000000">Album</text>
</g>
<!-- \\PlaylistEntry -->
<g id="node2" class="node">
<title>\\PlaylistEntry</title>
<polygon fill="none" stroke="#000000" points="386,-538 291,-538 291,-502 386,-502 386,-538"/>
<text text-anchor="middle" x="338.5" y="-517.2" font-family="Courier,monospace" font-size="11.00" fill="#000000">PlaylistEntry</text>
</g>
<!-- \\User -->
<g id="node3" class="node">
<title>\\User</title>
<polygon fill="none" stroke="#000000" points="365.5,-484 311.5,-484 311.5,-448 365.5,-448 365.5,-484"/>
<text text-anchor="middle" x="338.5" y="-463.2" font-family="Courier,monospace" font-size="11.00" fill="#000000">User</text>
</g>
<!-- \\Database -->
<g id="node4" class="node">
<title>\\Database</title>
<polygon fill="none" stroke="#000000" points="371,-430 306,-430 306,-394 371,-394 371,-430"/>
<text text-anchor="middle" x="338.5" y="-409.2" font-family="Courier,monospace" font-size="11.00" fill="#000000">Database</text>
</g>
<!-- \\Label -->
<g id="node5" class="node">
<title>\\Label</title>
<polygon fill="none" stroke="#000000" points="365.5,-376 311.5,-376 311.5,-340 365.5,-340 365.5,-376"/>
<text text-anchor="middle" x="338.5" y="-355.2" font-family="Courier,monospace" font-size="11.00" fill="#000000">Label</text>
</g>
<!-- \\BetterPage -->
<g id="node6" class="node">
<title>\\BetterPage</title>
<polygon fill="none" stroke="#000000" points="219,-322 142,-322 142,-286 219,-286 219,-322"/>
<text text-anchor="middle" x="180.5" y="-301.2" font-family="Courier,monospace" font-size="11.00" fill="#000000">BetterPage</text>
</g>
<!-- \\Page -->
<g id="node9" class="node">
<title>\\Page</title>
<polygon fill="none" stroke="#000000" points="70,-322 16,-322 16,-286 70,-286 70,-322"/>
<text text-anchor="middle" x="43" y="-301.2" font-family="Courier,monospace" font-size="11.00" fill="#000000">Page</text>
</g>
<!-- \\BetterPage&#45;&gt;\\Page -->
<g id="edge1" class="edge">
<title>\\BetterPage&#45;&gt;\\Page</title>
<path fill="none" stroke="#000000" d="M141.8327,-304C122.5307,-304 99.2881,-304 80.1932,-304"/>
<polygon fill="none" stroke="#000000" points="80.063,-300.5001 70.063,-304 80.063,-307.5001 80.063,-300.5001"/>
</g>
<!-- \\Form -->
<g id="node7" class="node">
<title>\\Form</title>
<polygon fill="none" stroke="#000000" points="365.5,-322 311.5,-322 311.5,-286 365.5,-286 365.5,-322"/>
<text text-anchor="middle" x="338.5" y="-301.2" font-family="Courier,monospace" font-size="11.00" fill="#000000">Form</text>
</g>
<!-- \\Form&#45;&gt;\\BetterPage -->
<g id="edge2" class="edge">
<title>\\Form&#45;&gt;\\BetterPage</title>
<path fill="none" stroke="#000000" d="M311.3388,-304C288.8067,-304 256.2015,-304 229.1773,-304"/>
<polygon fill="none" stroke="#000000" points="229.1259,-300.5001 219.1259,-304 229.1258,-307.5001 229.1259,-300.5001"/>
</g>
<!-- \\DataWriter -->
<g id="node8" class="node">
<title>\\DataWriter</title>
<polygon fill="none" stroke="#000000" points="377,-268 300,-268 300,-232 377,-232 377,-268"/>
<text text-anchor="middle" x="338.5" y="-247.2" font-family="Courier,monospace" font-size="11.00" fill="#000000">DataWriter</text>
</g>
<!-- \\Song -->
<g id="node10" class="node">
<title>\\Song</title>
<polygon fill="none" stroke="#000000" points="365.5,-214 311.5,-214 311.5,-178 365.5,-178 365.5,-214"/>
<text text-anchor="middle" x="338.5" y="-193.2" font-family="Courier,monospace" font-size="11.00" fill="#000000">Song</text>
</g>
<!-- \\Artist -->
<g id="node11" class="node">
<title>\\Artist</title>
<polygon fill="none" stroke="#000000" points="365.5,-160 311.5,-160 311.5,-124 365.5,-124 365.5,-160"/>
<text text-anchor="middle" x="338.5" y="-139.2" font-family="Courier,monospace" font-size="11.00" fill="#000000">Artist</text>
</g>
<!-- \\DataReader -->
<g id="node12" class="node">
<title>\\DataReader</title>
<polygon fill="none" stroke="#000000" points="377,-106 300,-106 300,-70 377,-70 377,-106"/>
<text text-anchor="middle" x="338.5" y="-85.2" font-family="Courier,monospace" font-size="11.00" fill="#000000">DataReader</text>
</g>
<!-- \\Stack -->
<g id="node13" class="node">
<title>\\Stack</title>
<polygon fill="none" stroke="#000000" points="365.5,-52 311.5,-52 311.5,-16 365.5,-16 365.5,-52"/>
<text text-anchor="middle" x="338.5" y="-31.2" font-family="Courier,monospace" font-size="11.00" fill="#000000">Stack</text>
</g>
</g>
</svg>
